<?xml version="1.0" encoding="UTF-8" standalone="no"?>
<svg
   xmlns:dc="http://purl.org/dc/elements/1.1/"
   xmlns:cc="http://creativecommons.org/ns#"
   xmlns:rdf="http://www.w3.org/1999/02/22-rdf-syntax-ns#"
   xmlns:svg="http://www.w3.org/2000/svg"
   xmlns="http://www.w3.org/2000/svg"
   version="1.1"
   id="svg9857"
   viewBox="0 0 600.00001 357.00001"
   height="357"
   width="600">
  <defs
     id="defs9859">
    <clipPath
       id="clipPath10566"
       clipPathUnits="userSpaceOnUse">
      <path
         id="path10568"
         d="m 0,5520 1940,0 L 1940,0 0,0 0,5520 Z" />
    </clipPath>
  </defs>
  <metadata
     id="metadata9862">
    <rdf:RDF>
      <cc:Work
         rdf:about="">
        <dc:format>image/svg+xml</dc:format>
        <dc:type
           rdf:resource="http://purl.org/dc/dcmitype/StillImage" />
        <dc:title></dc:title>
      </cc:Work>
    </rdf:RDF>
  </metadata>
  <g
     transform="translate(-73.415886,-122.78701)"
     id="layer1">
    <g
       id="g10562"
       transform="matrix(2.7087871,0,0,-2.7087871,-412.57712,12936.979)">
      <g
         clip-path="url(#clipPath10566)"
         id="g10564">
        <g
           transform="translate(365.2585,4696.9404)"
           id="g10570">
          <path
             id="path10572"
             style="fill:#ffffff;fill-opacity:1;fill-rule:nonzero;stroke:none"
             d="m 0,0 c -1.038,2.204 -3.198,3.681 -5.505,3.763 l -137.353,2.622 c -1.936,0.033 -3.944,-0.853 -5.516,-2.42 -1.645,-1.641 -2.573,-5.588 -2.547,-7.625 l 0.801,-54.197 0.365,0 0.798,54.106 0.226,2.191 0.38,1.564 0.536,1.184 c 0.389,0.562 0.909,1.178 1.488,1.556 l 1.008,0.598 1.2,0.444 1.309,0.28 68.499,-2.125 68.499,-1.575 0.663,-0.108 0.568,-0.187 0.476,-0.258 c 0.277,-0.187 0.527,-0.437 0.713,-0.712 l 0.298,-0.523 0.251,-0.664 0.144,-0.62 -7.134,-59.001 -1.026,-2.091 -1.355,-1.726 -0.765,-0.68 -0.832,-0.569 -0.908,-0.466 -0.809,-0.296 -91.723,-0.534 -26.656,3.554 -0.167,0.018 -0.078,-0.351 26.825,-4.373 92.086,-1.636 0.026,0 c 1.057,0 2.354,0.729 3.132,1.19 2.502,1.486 5.229,4.457 5.598,7.301 L 0.717,-2.813 C 0.799,-2.11 0.564,-1.196 0,0" />
        </g>
        <g
           transform="translate(350.3387,4661.2856)"
           id="g10574">
          <path
             id="path10576"
             style="fill:#ffffff;fill-opacity:1;fill-rule:nonzero;stroke:none"
             d="M 0,0 C -0.306,0.336 -0.725,0.533 -1.179,0.554 L -124.65,6.27 c -0.933,0.045 -1.736,-0.685 -1.779,-1.623 -0.044,-0.938 0.684,-2.913 1.622,-2.957 l 123.47,-6.893 0.08,0 c 0.425,0 0.83,1.332 1.146,1.621 0.336,0.307 0.533,1.313 0.554,1.768 C 0.464,-1.36 0.307,-0.336 0,0" />
        </g>
        <g
           transform="translate(350.717,4686.7427)"
           id="g10578">
          <path
             id="path10580"
             style="fill:#ffffff;fill-opacity:1;fill-rule:evenodd;stroke:none"
             d="M 0,0 0.148,3.477 -24.29,4.521 c 0,0 0.997,-2.781 2.178,-2.832 0.777,-0.033 3.409,-0.146 5.334,-0.228 1.113,-0.047 2.634,-0.857 2.554,-2.747 -0.212,-4.962 -0.604,-14.109 -0.619,-14.481 -0.018,-0.405 -0.765,-2.064 -2.006,-2.619 -1.137,-0.492 -4.267,-0.933 -4.267,-0.933 l 15.257,-0.653 c 0,0 0.874,3.04 -0.611,3.104 -1.519,0.065 -2.751,-1.844 -4.238,-1.036 -1.519,0.842 -0.364,18.378 -0.364,18.378 L 0,0 Z m -29.597,-15.198 c -1.503,-0.341 -4.213,-2.052 -5.232,1.008 -0.342,1.502 0.143,3.347 0.224,5.237 l 0.371,-0.016 c 2.228,-0.095 5.332,0.55 5.444,3.155 -0.792,-0.338 -5.72,-0.906 -5.653,0.647 0.062,1.458 0.127,2.977 0.191,4.467 0.08,1.89 2.002,2.552 3.488,2.489 2.311,0.273 4.167,0.971 5.394,2.779 C -31.007,4.809 -36.644,5.05 -42.281,5.291 -41.924,4.16 -41.6,3.03 -41.276,1.9 l 1.485,-0.064 c 0.371,-0.015 2.261,-0.096 2.149,-2.735 -0.049,-1.147 -0.097,-2.261 -0.145,-3.375 -0.081,-1.896 -0.049,-1.154 -1.55,-1.461 -1.553,-0.712 -2.342,-1.794 -0.096,-2.234 2.211,-0.5 1.259,-5.368 1.178,-7.264 0,0 -0.095,-2.228 -4.633,-3.155 4.895,-0.21 10.126,-0.433 14.987,-0.641 1.972,1.815 0.548,4.113 -1.696,3.831 m -18.16,0.777 c -1.502,-0.342 -4.213,-2.052 -5.232,1.007 -0.342,1.502 0.143,3.348 0.224,5.237 l 0.371,-0.015 c 2.228,-0.096 5.333,0.549 5.444,3.154 -0.792,-0.337 -5.72,-0.905 -5.653,0.648 0.062,1.457 0.127,2.976 0.19,4.467 0.081,1.89 2.004,2.551 3.489,2.488 2.311,0.273 4.167,0.972 5.394,2.779 -5.637,0.241 -11.274,0.483 -16.911,0.723 0.357,-1.131 0.681,-2.26 1.005,-3.391 l 1.485,-0.063 c 0.371,-0.015 2.262,-0.096 2.149,-2.736 -0.049,-1.147 -0.097,-2.261 -0.144,-3.375 -0.082,-1.896 -0.05,-1.153 -1.551,-1.46 -1.552,-0.712 -2.342,-1.794 -0.096,-2.234 2.211,-0.5 1.259,-5.369 1.178,-7.265 0,0 -0.096,-2.228 -4.633,-3.155 4.895,-0.209 10.127,-0.433 14.987,-0.64 1.972,1.814 0.548,4.113 -1.696,3.831 m -14.014,17.062 0.149,3.477 -24.439,1.045 c 0,0 0.997,-2.782 2.179,-2.832 0.776,-0.034 3.409,-0.146 5.332,-0.228 1.115,-0.048 2.636,-0.857 2.555,-2.748 -0.213,-4.961 -0.604,-14.109 -0.619,-14.48 -0.018,-0.405 -0.765,-2.064 -2.006,-2.62 -1.137,-0.492 -4.267,-0.933 -4.267,-0.933 l 15.257,-0.653 c 0,0 0.874,3.04 -0.611,3.104 -1.519,0.065 -2.751,-1.844 -4.238,-1.036 -1.519,0.842 -0.363,18.378 -0.363,18.378 l 11.071,-0.474 z m -34.885,-5.204 c -1.451,0.063 -2.568,1.632 -2.471,3.893 0.079,1.857 0.97,3.712 2.422,3.65 1.519,-0.064 2.923,-2.019 2.844,-3.875 -0.097,-2.262 -1.276,-3.733 -2.795,-3.668 m 8.518,-12.741 c -0.255,0.349 -0.76,0.405 -1.132,0.42 l -5.61,10.351 c 1.909,0.358 4.282,2.083 4.444,5.864 0.253,5.907 -5.583,6.258 -11.017,6.49 l -0.273,-6.38 -0.626,-14.649 c 0,0 -0.484,-2.617 -1.261,-2.584 l 1.148,-0.049 1.148,-0.049 3.004,-0.129 1.857,-0.079 c -1.132,0.42 -1.745,2.712 -1.745,2.712 l 0.256,5.975 c 0.016,0.371 0.032,0.743 0.42,1.132 l 4.088,-8.798 c -0.017,-0.405 -0.033,-0.777 -0.42,-1.132 l 3.037,-0.13 1.114,-0.048 1.114,-0.047 0.405,-0.017 c 0,0 0.561,0.449 0.049,1.147 m -25.795,12.804 -4.523,0.193 c 1.29,3.292 2.324,6.123 2.548,6.62 0.376,0.864 0.81,0.744 1.114,-0.047 0.29,-1.129 0.29,-1.129 1.651,-5.684 -0.047,-1.115 -0.79,-1.082 -0.79,-1.082 m 7.478,-10.161 -6.353,19.074 c 0.388,0.389 0.419,1.097 0.452,1.875 l -6.042,0.257 c -0.033,-0.776 -0.063,-1.485 -0.081,-1.89 l -6.743,-18.513 -0.405,0.017 -2.39,-2.908 7.493,-0.32 c 0,0 -1.033,1.938 -0.985,3.052 0.033,0.776 0.938,3.747 2.196,7.075 l 6.38,-0.272 c 0,0 0.743,-0.033 1.08,-0.825 0.68,-1.517 0.971,-3.389 1.989,-5.698 0.324,-2.686 -0.499,-3.766 -0.499,-3.766 l 0.776,-0.034 3.004,-0.128 1.451,-0.062 c 0,0 -0.695,1.145 -1.323,3.066" />
        </g>
        <g
           transform="translate(336.6639,4635.6665)"
           id="g10582">
          <path
             id="path10584"
             style="fill:#ffffff;fill-opacity:1;fill-rule:evenodd;stroke:none"
             d="m 0,0 c -1.504,-0.332 -4.227,-2.023 -5.225,1.042 -0.332,1.505 0.166,3.347 0.259,5.236 L -4.594,6.26 c 2.227,-0.111 5.336,0.513 5.465,3.117 -0.795,-0.332 -5.726,-0.866 -5.649,0.686 0.072,1.457 0.147,2.976 0.221,4.465 0.094,1.89 2.02,2.539 3.505,2.465 2.313,0.258 4.173,0.944 5.413,2.743 -5.635,0.279 -11.271,0.558 -16.906,0.838 0.35,-1.134 0.666,-2.266 0.982,-3.398 l 1.485,-0.073 c 0.371,-0.019 2.261,-0.113 2.13,-2.75 C -8.005,13.206 -8.06,12.092 -8.115,10.979 -8.209,9.083 -8.172,9.825 -9.676,9.528 -11.232,8.827 -12.03,7.75 -9.786,7.295 c 2.207,-0.516 1.222,-5.377 1.128,-7.272 0,0 -0.11,-2.228 -4.654,-3.124 C -8.419,-3.343 -3.189,-3.603 1.67,-3.843 3.654,-2.042 2.246,0.266 0,0 m -13.898,17.156 0.172,3.476 -24.43,1.211 c 0,0 0.978,-2.789 2.159,-2.847 0.776,-0.038 3.408,-0.169 5.331,-0.265 1.114,-0.055 2.629,-0.874 2.535,-2.763 -0.245,-4.961 -0.698,-14.106 -0.717,-14.477 -0.02,-0.405 -0.778,-2.059 -2.023,-2.606 -1.14,-0.485 -4.273,-0.905 -4.273,-0.905 l 15.252,-0.755 c 0,0 0.895,3.034 -0.59,3.108 -1.519,0.075 -2.763,-1.826 -4.245,-1.008 -1.513,0.853 -0.239,18.38 -0.239,18.38 l 11.068,-0.549 z m -34.919,-4.967 c -1.451,0.072 -2.557,1.649 -2.445,3.91 0.092,1.856 0.996,3.706 2.447,3.633 1.518,-0.075 2.909,-2.038 2.817,-3.894 -0.112,-2.261 -1.301,-3.724 -2.819,-3.649 m 8.432,-12.798 c -0.254,0.35 -0.758,0.409 -1.13,0.428 l -5.54,10.388 c 1.911,0.345 4.297,2.054 4.484,5.834 0.293,5.905 -5.54,6.295 -10.973,6.564 L -53.86,16.228 -54.586,1.583 c 0,0 -0.501,-2.614 -1.277,-2.576 l 1.147,-0.057 1.148,-0.056 3.002,-0.149 1.857,-0.092 c -1.13,0.428 -1.726,2.724 -1.726,2.724 l 0.296,5.973 c 0.018,0.371 0.037,0.742 0.428,1.129 l 4.027,-8.826 c -0.019,-0.404 -0.038,-0.776 -0.427,-1.129 l 3.036,-0.15 1.114,-0.055 1.114,-0.056 0.405,-0.02 c 0,0 0.563,0.446 0.057,1.148 m -25.709,12.977 -4.521,0.224 c 1.312,3.284 2.365,6.108 2.593,6.604 0.381,0.86 0.815,0.738 1.114,-0.055 0.282,-1.131 0.282,-1.131 1.612,-5.696 -0.055,-1.113 -0.798,-1.077 -0.798,-1.077 m 7.41,-10.211 -6.224,19.117 c 0.391,0.386 0.426,1.095 0.465,1.871 l -6.04,0.299 c -0.039,-0.776 -0.074,-1.485 -0.094,-1.889 l -6.869,-18.468 -0.405,0.02 -2.409,-2.891 7.491,-0.371 c 0,0 -1.02,1.945 -0.965,3.058 0.039,0.777 0.963,3.741 2.244,7.061 l 6.378,-0.316 c 0,0 0.742,-0.037 1.075,-0.832 0.669,-1.522 0.948,-3.396 1.949,-5.711 0.307,-2.688 -0.524,-3.763 -0.524,-3.763 l 0.776,-0.038 3.003,-0.149 1.451,-0.072 c 0,0 -0.687,1.15 -1.302,3.074 m -38.626,22.617 -8.031,0.398 2.179,-2.442 -0.793,-15.995 c -0.15,-3.037 -1.411,-5.275 -3.334,-5.179 l 3.07,-0.152 3.813,-0.19 3.847,-0.19 c 0,0 -0.365,1.506 -0.662,2.333 -0.772,0.816 -3.494,-0.199 -3.456,0.577 0.035,0.709 0.527,10.629 0.565,11.406 0.057,1.146 0.057,1.146 2.253,-1.634 0,0 2.833,-3.591 3.98,-3.647 1.148,-0.058 3.627,2.864 3.627,2.864 2.379,2.96 2.36,2.589 2.302,1.409 -0.055,-1.114 -0.545,-11.002 -0.584,-11.777 -0.038,-0.777 -0.78,-0.74 -1.17,-1.093 -0.391,-0.386 -0.41,-0.757 -0.41,-0.757 l 1.485,-0.074 3.476,-0.173 3.442,-0.17 c 0,0 0.444,1.466 -0.31,1.943 -1.095,0.427 -3.018,0.522 -3.018,0.522 0,0 0.926,18.695 0.943,19.032 0.019,0.405 1.538,0.33 2.314,0.291 0.763,0.368 1.243,1.867 1.243,1.867 l -3.442,0.17 -0.405,0.021 -1.924,0.095 -1.147,0.057 -1.485,0.073 c 0,0 1.053,-1.98 1.016,-2.722 -0.02,-0.406 -4.945,-6.25 -5.707,-6.618 -1.127,0.461 -3.162,5.128 -4.548,7.87 -0.315,1.165 0.432,1.906 0.871,1.885" />
        </g>
        <g
           transform="translate(307.009,4676.2573)"
           id="g10586">
          <path
             id="path10588"
             style="fill:#d23833;fill-opacity:1;fill-rule:evenodd;stroke:none"
             d="M 0,0 C 1.008,0 1.829,0.873 1.829,1.943 1.829,3.014 1.008,3.887 0,3.887 -1.008,3.887 -1.829,3.014 -1.829,1.943 -1.829,0.873 -1.008,0 0,0" />
        </g>
        <g
           transform="translate(307.009,4676.2573)"
           id="g10590">
          <path
             id="path10592"
             style="fill:#ffffff;stroke:#ffffff;stroke-width:0.36500001;stroke-linecap:butt;stroke-linejoin:miter;stroke-miterlimit:22.9260006;stroke-dasharray:none;stroke-opacity:1"
             d="M 0,0 C 1.008,0 1.829,0.873 1.829,1.943 1.829,3.014 1.008,3.887 0,3.887 -1.008,3.887 -1.829,3.014 -1.829,1.943 -1.829,0.873 -1.008,0 0,0 Z" />
        </g>
      </g>
    </g>
    <rect
       y="122.78701"
       x="73.415886"
       height="357"
       width="600"
       id="rect9830"
       style="fill:none;fill-opacity:1;stroke:none;stroke-width:1.27282155;stroke-linecap:round;stroke-linejoin:round;stroke-miterlimit:4;stroke-dasharray:none;stroke-opacity:1" />
  </g>
</svg>
